<?xml version="1.0" standalone="no"?>
<!DOCTYPE svg PUBLIC "-//W3C//DTD SVG 20010904//EN"
 "http://www.w3.org/TR/2001/REC-SVG-20010904/DTD/svg10.dtd">
<svg version="1.0" xmlns="http://www.w3.org/2000/svg"
 width="6153.000000pt" height="4104.000000pt" viewBox="0 0 6153.000000 4104.000000"
 preserveAspectRatio="xMidYMid meet">
<metadata>
Created by potrace 1.16, written by Peter Selinger 2001-2019
</metadata>
<g transform="translate(0.000000,4104.000000) scale(0.100000,-0.100000)"
fill="#000000" stroke="none">
<path d="M29740 39625 l-1415 -1415 1418 -1418 1417 -1417 1417 1417 1418
1418 -1415 1415 c-778 778 -1417 1415 -1420 1415 -3 0 -642 -637 -1420 -1415z"/>
<path d="M27605 39410 l-240 -240 243 -243 242 -242 242 242 243 243 -240 240
c-132 132 -242 240 -245 240 -3 0 -113 -108 -245 -240z"/>
<path d="M27252 37367 c-259 -259 -472 -477 -472 -482 0 -6 214 -224 475 -485
l475 -475 480 480 480 480 -477 477 c-263 263 -480 478 -483 478 -3 0 -218
-213 -478 -473z"/>
<path d="M32741 35570 c-931 -940 -1696 -1710 -1700 -1710 -4 0 -308 305 -676
678 -368 372 -889 899 -1158 1171 l-489 494 -531 -531 -532 -532 -535 535
c-294 295 -540 534 -547 533 -6 -2 -487 -473 -1070 -1048 -582 -575 -1119
-1105 -1193 -1177 l-135 -132 1735 -1735 c954 -955 1730 -1736 1725 -1736 -5
0 770 -780 1724 -1734 954 -954 1738 -1734 1741 -1733 4 1 303 -289 666 -644
647 -633 965 -942 1434 -1390 270 -257 1346 -1277 1432 -1358 32 -29 56 -56
53 -61 -6 -9 29 -42 37 -34 8 8 128 -106 125 -119 -1 -7 3 -11 9 -10 6 1 22
-9 34 -22 13 -14 20 -25 15 -25 -4 0 0 -9 10 -20 10 -11 21 -17 25 -15 9 6
153 -125 145 -133 -7 -7 16 -33 25 -27 4 2 18 -7 30 -20 13 -14 20 -25 15 -25
-5 0 2 -11 15 -25 12 -13 26 -22 31 -20 10 7 240 -215 234 -225 -2 -4 9 -20
25 -35 17 -16 30 -25 30 -19 0 5 72 -63 159 -150 88 -88 158 -163 156 -166 -3
-4 7 -18 20 -30 14 -13 25 -19 25 -14 0 5 41 -32 90 -81 82 -81 111 -118 78
-99 -7 4 -5 -2 6 -14 10 -12 22 -19 26 -17 8 5 28 -14 29 -27 1 -5 3 -7 6 -5
6 3 105 -96 105 -106 0 -4 -5 -5 -12 -1 -7 5 -8 3 -4 -5 5 -7 11 -10 14 -7 9
9 32 -15 25 -27 -3 -5 -2 -7 4 -4 15 9 77 -59 68 -75 -5 -7 -5 -10 0 -6 11 11
36 -12 28 -25 -3 -5 -2 -7 4 -4 14 9 57 -39 48 -53 -4 -6 -1 -9 7 -8 7 2 12
-3 10 -10 -1 -8 1 -11 6 -8 13 8 55 -40 47 -54 -4 -6 -1 -9 7 -8 7 2 12 -3 10
-10 -1 -8 2 -11 6 -8 11 6 44 -27 40 -40 -2 -5 2 -10 7 -12 21 -7 45 -36 43
-51 -2 -9 2 -15 9 -14 13 3 115 -121 111 -134 -2 -4 0 -8 3 -8 3 0 13 -6 22
-14 19 -15 23 -36 5 -25 -7 4 -8 3 -4 -5 4 -6 11 -9 16 -6 4 3 20 -11 34 -29
28 -37 33 -52 14 -40 -7 4 -8 3 -4 -5 4 -6 11 -9 16 -6 20 13 260 -369 347
-553 205 -434 228 -851 71 -1267 -45 -120 -149 -326 -225 -448 -104 -165 -241
-353 -294 -404 -27 -25 -46 -50 -43 -55 8 -12 -26 -49 -37 -42 -5 3 -6 -1 -3
-9 5 -13 -23 -45 -34 -39 -3 1 -7 -5 -8 -13 -3 -21 -23 -45 -36 -42 -6 1 -12
-6 -13 -16 -4 -24 -25 -48 -36 -41 -5 3 -8 0 -7 -8 2 -7 -3 -12 -10 -10 -8 1
-11 -2 -8 -7 8 -12 -33 -63 -45 -55 -5 3 -8 0 -7 -8 2 -7 -3 -12 -10 -10 -8 1
-11 -2 -8 -7 8 -12 -43 -73 -55 -65 -5 3 -8 0 -7 -8 2 -7 -3 -12 -10 -10 -8 1
-11 -1 -8 -6 8 -13 -54 -83 -66 -76 -6 4 -8 2 -5 -3 7 -10 -8 -28 -28 -35 -5
-1 -9 -6 -8 -9 3 -9 -77 -99 -85 -96 -4 1 -9 -2 -10 -8 -6 -18 -24 -35 -32
-30 -9 5 -28 -15 -29 -30 0 -15 -152 -176 -160 -170 -9 5 -54 -39 -46 -46 2
-3 -70 -79 -160 -169 -91 -91 -165 -161 -165 -155 0 5 -16 -6 -35 -25 -19 -18
-32 -37 -30 -41 6 -8 -209 -212 -220 -209 -10 3 -65 -52 -60 -60 5 -7 -42 -55
-53 -55 -4 0 -6 -3 -5 -7 1 -3 -33 -39 -77 -78 -44 -40 -80 -69 -80 -65 0 5
-9 0 -20 -10 -11 -10 -17 -21 -15 -25 5 -7 -32 -45 -44 -45 -3 0 -5 -3 -4 -6
1 -4 -29 -35 -67 -69 -39 -34 -70 -58 -70 -55 0 4 -7 2 -15 -5 -8 -7 -13 -16
-10 -20 5 -8 -34 -46 -44 -42 -3 1 -6 -1 -6 -5 0 -5 -131 -132 -290 -284 -160
-151 -517 -491 -795 -755 -699 -663 -1208 -1155 -1861 -1796 -306 -301 -561
-548 -566 -548 -4 0 -297 289 -651 643 -488 487 -679 684 -790 817 -400 479
-840 911 -1252 1230 -118 91 -448 417 -2621 2590 -1367 1367 -2631 2636 -2810
2820 -471 488 -922 959 -1539 1610 -1107 1169 -1457 1530 -1935 1999 -781 766
-1356 1175 -1843 1311 -258 73 -532 79 -767 19 -44 -12 -84 -22 -90 -23 -5 -1
-14 -4 -20 -7 -10 -7 -77 -29 -98 -34 -7 -1 -28 -9 -48 -18 -20 -9 -42 -17
-50 -19 -7 -2 -18 -6 -24 -10 -34 -24 -224 -116 -229 -111 -3 4 -6 1 -6 -5 0
-15 -55 -43 -65 -34 -5 4 -5 2 -1 -5 6 -12 -30 -30 -49 -24 -5 1 -7 -1 -3 -4
8 -8 -162 -122 -175 -117 -5 1 -6 -2 -2 -8 6 -10 -9 -15 -30 -10 -5 1 -7 -2
-3 -6 10 -9 -184 -154 -196 -147 -5 4 -6 1 -2 -5 7 -11 -32 -38 -47 -34 -5 1
-6 -2 -2 -7 6 -10 -34 -37 -48 -33 -5 1 -6 -2 -3 -7 8 -12 -49 -53 -59 -43 -5
4 -5 2 -1 -5 7 -14 -47 -56 -59 -45 -5 4 -5 2 -1 -5 7 -13 -49 -60 -66 -55 -5
1 -7 -2 -4 -7 8 -12 -69 -73 -79 -63 -5 4 -5 2 -2 -5 8 -13 -69 -83 -87 -80
-6 1 -10 -3 -9 -10 3 -14 -91 -98 -109 -98 -7 -1 -12 -6 -11 -12 3 -14 -147
-154 -157 -148 -4 2 -18 -7 -30 -20 -13 -14 -19 -25 -14 -25 5 0 -139 -148
-320 -329 -182 -182 -333 -328 -336 -326 -10 6 -72 -60 -64 -68 8 -8 -216
-238 -226 -232 -10 6 -42 -30 -34 -38 3 -3 -58 -73 -138 -154 -79 -81 -429
-449 -778 -818 -1770 -1868 -1716 -1813 -8542 -8635 l-4578 -4575 538 -546
c563 -572 978 -999 1272 -1309 2014 -2127 2818 -2954 3225 -3320 580 -520
1012 -811 1395 -937 206 -69 267 -78 500 -78 178 0 219 3 308 23 326 73 649
240 1042 538 360 273 605 498 1336 1229 683 682 839 842 2884 2940 2594 2662
3345 3429 4240 4328 l525 527 3543 -3542 c4562 -4561 4394 -4390 6601 -6718
1212 -1277 1784 -1835 2277 -2218 828 -644 1445 -764 2151 -418 457 224 907
584 1647 1316 450 445 709 713 1616 1670 1299 1371 1772 1861 2655 2750 1332
1342 1808 1833 3145 3245 1114 1177 1538 1612 1665 1708 44 34 159 136 255
227 457 432 804 713 1113 904 496 306 920 396 1352 286 515 -130 1034 -490
1865 -1292 374 -361 1820 -1818 1820 -1833 0 -5 52 -58 115 -118 63 -60 113
-113 110 -117 -2 -4 4 -15 15 -25 11 -10 20 -14 20 -10 0 5 11 -2 25 -15 13
-12 23 -26 22 -30 -1 -5 1 -7 5 -6 10 1 168 -156 168 -167 0 -5 -8 -3 -17 4
-15 11 -15 10 1 -8 10 -13 22 -20 26 -18 8 5 38 -24 40 -40 1 -5 6 -9 10 -8 8
2 596 -598 1985 -2027 859 -883 1653 -1698 1905 -1955 1026 -1047 1905 -1935
1913 -1935 6 0 202 190 436 423 705 699 1386 1355 2661 2562 1523 1443 2020
1946 2439 2470 787 984 860 1668 275 2561 -312 476 -797 1007 -1864 2037 -823
796 -1420 1378 -3315 3231 -1152 1127 -1474 1447 -1472 1459 1 5 -7 11 -17 13
-19 3 -187 162 -183 173 1 3 -1 6 -4 6 -12 0 -49 38 -44 45 5 8 -25 37 -32 32
-4 -3 -110 100 -772 753 -201 198 -2478 2471 -5061 5050 -4705 4700 -6338
6325 -8165 8125 -539 530 -1113 1095 -1275 1255 -1200 1183 -3725 3641 -4461
4342 l-45 44 -1693 -1711z m-3366 -6920 c951 -951 1728 -1730 1725 -1730 -3 0
-784 779 -1735 1730 -951 952 -1728 1730 -1725 1730 3 0 784 -778 1735 -1730z"/>
</g>
</svg>
